<svg xmlns="http://www.w3.org/2000/svg" version="1.0" width="1280.000000pt" height="1084.000000pt" viewBox="0 0 1280.000000 1084.000000" preserveAspectRatio="xMidYMid meet">

<g transform="translate(0.000000,1084.000000) scale(0.100000,-0.100000)" fill="#ffffff" stroke="none">
<path d="M6070 10833 c-274 -15 -629 -72 -900 -144 -1147 -303 -2122 -1045 -2710 -2064 -581 -1006 -745 -2188 -464 -3334 48 -196 157 -521 239 -711 442 -1030 1223 -1849 2230 -2341 549 -268 1065 -408 1694 -460 181 -15 637 -6 816 16 758 92 1408 331 2029 748 642 430 1197 1085 1523 1798 433 948 526 1973 273 2989 -249 1000 -836 1901 -1649 2530 -831 643 -1842 988 -2861 978 -91 -1 -190 -3 -220 -5z m260 -512 l0 -359 -97 -7 c-436 -29 -802 -108 -1168 -252 -428 -168 -806 -405 -1150 -719 l-102 -93 -267 268 -267 267 103 95 c303 279 590 481 943 665 562 292 1180 456 1820 483 99 4 181 9 183 9 1 1 2 -160 2 -357z m505 323 c781 -93 1516 -389 2160 -870 98 -73 244 -195 375 -313 l45 -41 -241 -238 -241 -238 -44 39 c-261 229 -430 353 -674 492 -354 202 -797 363 -1175 426 -87 14 -122 28 -72 29 18 0 53 5 78 11 42 11 44 13 29 29 -39 43 -158 51 -248 16 -70 -27 -203 -41 -297 -30 l-60 7 0 355 0 355 118 -7 c64 -3 176 -13 247 -22z m-505 -1182 l0 -339 -142 -12 c-490 -40 -932 -191 -1337 -455 -128 -84 -268 -193 -364 -285 l-78 -75 -240 240 -240 241 73 70 c371 359 895 658 1422 812 267 78 599 132 854 140 l52 1 0 -338z m212 313 c29 -14 62 -25 72 -25 18 0 18 1 3 18 -24 26 -22 28 26 24 360 -28 718 -111 1057 -244 155 -61 155 -62 123 -74 -17 -8 -62 -18 -100 -24 -108 -17 -133 -44 -95 -101 18 -29 192 -210 235 -246 16 -13 27 -33 27 -47 0 -14 17 -44 39 -70 22 -25 44 -61 51 -81 13 -41 18 -42 95 -15 32 11 66 18 75 15 26 -8 143 -132 136 -144 -4 -6 -18 -11 -32 -11 -33 0 -30 -11 14 -41 20 -15 77 -61 126 -103 48 -42 90 -76 93 -76 2 0 14 5 26 11 12 6 -23 -34 -77 -89 l-99 -101 -56 51 c-81 74 -221 182 -331 253 -399 263 -853 418 -1337 457 l-143 11 0 339 c0 194 4 338 9 338 5 0 33 -11 63 -25z m-3082 -720 l265 -265 -51 -52 c-27 -29 -70 -78 -95 -108 -401 -489 -667 -1064 -779 -1684 -25 -140 -50 -353 -50 -428 0 -32 -3 -58 -6 -58 -3 0 -26 14 -51 31 -36 25 -47 29 -54 18 -14 -23 -10 -55 11 -82 33 -42 24 -61 -14 -32 -25 19 -46 19 -46 0 0 -37 -20 -10 -31 43 -22 100 -46 142 -64 112 -9 -15 -25 -12 -25 5 0 27 -23 65 -40 65 -9 0 -38 -22 -63 -50 -35 -38 -53 -50 -75 -50 -40 0 -64 -30 -77 -96 l-11 -56 -88 0 -88 0 1 129 c10 830 305 1708 810 2408 117 162 327 414 346 415 6 0 129 -119 275 -265z m6137 175 c506 -548 878 -1246 1054 -1980 65 -267 119 -651 119 -840 l0 -55 -354 -4 -354 -3 -7 113 c-16 268 -46 475 -106 717 -143 585 -428 1120 -840 1579 l-78 88 237 238 c130 130 240 236 243 235 4 -2 42 -41 86 -88z m-1040 -174 c59 -47 142 -116 183 -154 l75 -70 -22 -23 -23 -23 -32 29 c-109 98 -172 166 -194 207 -14 27 -33 50 -46 54 -21 6 -68 48 -68 60 0 14 30 -5 127 -80z m-2227 -420 l0 -325 -42 -5 c-24 -3 -72 -8 -108 -11 -181 -17 -439 -89 -624 -174 -178 -82 -368 -208 -498 -329 -36 -34 -70 -62 -74 -62 -5 0 -112 103 -237 228 l-228 229 78 70 c283 253 567 425 903 546 237 86 549 148 778 155 l52 2 0 -324z m312 314 c452 -43 913 -209 1265 -457 l63 -44 -20 -40 c-15 -29 -18 -44 -11 -58 19 -34 150 -143 177 -146 61 -6 49 -24 -155 -229 l-198 -198 -74 62 c-255 214 -593 373 -922 434 -62 12 -262 36 -293 36 -2 0 -4 146 -4 325 l0 325 33 0 c17 0 80 -5 139 -10z m2331 -277 c56 -59 151 -172 176 -208 17 -25 -30 26 -87 93 -25 30 -72 69 -113 93 -68 39 -70 41 -53 60 9 10 18 19 20 19 1 0 27 -26 57 -57z m-4753 -584 c-333 -412 -548 -905 -615 -1412 -5 -40 -13 -53 -50 -84 -49 -40 -59 -60 -84 -160 l-17 -68 -278 -3 -278 -2 7 117 c47 801 353 1552 868 2136 l60 69 240 -240 239 -239 -92 -114z m4520 292 c150 -72 178 -92 290 -198 140 -134 150 -140 190 -117 22 14 32 29 40 68 20 86 20 87 43 84 31 -4 100 -110 206 -318 235 -460 358 -914 387 -1427 l7 -123 -341 0 -340 0 -7 108 c-37 583 -242 1126 -593 1578 -39 50 -96 119 -128 153 l-57 62 98 99 c98 99 99 99 120 81 11 -11 49 -33 85 -50z m-569 -93 l54 -48 -23 -22 -22 -22 -37 44 c-57 65 -65 79 -59 96 7 19 17 13 87 -48z m-1841 -510 l0 -383 -103 -17 c-56 -9 -131 -26 -167 -38 -71 -23 -201 -86 -259 -126 -32 -21 -37 -22 -47 -9 -6 8 -15 37 -18 63 -10 67 -34 109 -89 156 -47 39 -52 41 -115 41 -53 0 -73 5 -99 23 -18 13 -46 22 -67 22 -24 0 -36 5 -36 14 0 10 -24 15 -89 20 -83 7 -90 9 -121 41 -18 19 -29 38 -25 45 14 23 193 166 280 223 266 175 632 298 908 306 l47 1 0 -382z m436 347 c259 -52 522 -166 721 -314 165 -122 210 -170 115 -122 -69 34 -90 35 -136 4 -48 -33 -56 -42 -56 -67 0 -15 5 -17 33 -11 84 17 124 17 131 -1 5 -13 -10 -35 -61 -86 -63 -62 -73 -69 -128 -79 -53 -9 -66 -17 -107 -61 -51 -53 -57 -71 -33 -98 13 -15 11 -20 -23 -53 -53 -52 -113 -60 -176 -23 -24 14 -51 26 -60 26 -8 0 -26 12 -40 26 -16 18 -36 28 -63 30 -21 1 -53 9 -72 17 l-33 14 61 37 c49 30 62 44 71 74 12 44 13 132 2 132 -13 0 -115 -66 -149 -96 -24 -22 -32 -38 -32 -65 -1 -55 -14 -59 -116 -38 -49 10 -102 19 -117 19 l-28 0 0 386 0 387 88 -7 c48 -4 141 -18 208 -31z m1615 -48 c30 -34 86 -101 123 -149 57 -74 65 -90 57 -107 -6 -11 -11 -29 -11 -41 0 -18 -3 -19 -21 -10 -34 19 -34 3 0 -35 17 -20 31 -41 31 -48 -1 -11 -11 -1 -86 87 -17 20 -39 36 -49 36 -13 0 -8 -10 21 -42 22 -24 52 -60 67 -80 48 -62 104 -69 141 -17 14 20 16 18 54 -48 62 -106 109 -204 162 -337 l49 -123 -8 -79 c-9 -81 -29 -153 -30 -108 -1 29 -25 37 -50 16 -16 -13 -22 -33 -25 -85 -7 -104 -36 -147 -78 -115 -20 15 -25 90 -13 178 l7 56 -52 57 c-76 84 -113 78 -126 -21 -9 -68 -23 -88 -52 -73 -21 11 -52 59 -52 81 0 5 11 10 25 10 15 0 25 6 25 14 0 22 -29 40 -60 38 -24 -2 -35 8 -84 75 -65 90 -109 125 -188 148 -54 15 -60 20 -114 97 -31 45 -86 115 -122 156 l-66 76 193 188 c106 103 197 185 202 182 5 -3 9 0 9 7 0 11 50 77 60 78 3 1 30 -27 61 -62z m-3719 -224 l226 -226 -69 -90 c-75 -97 -159 -228 -207 -324 -21 -40 -51 -77 -91 -112 -39 -34 -68 -69 -82 -101 -22 -50 -43 -69 -107 -100 -38 -19 -108 -101 -147 -172 -25 -46 -26 -50 -11 -73 20 -31 20 -59 0 -79 -13 -14 -19 -14 -41 -2 -19 10 -36 11 -64 3 -47 -11 -69 2 -69 42 -1 14 -7 37 -15 51 -8 14 -14 34 -15 44 0 30 -40 106 -56 106 -7 0 -19 -10 -25 -22 -12 -22 -13 -22 -24 12 -11 30 -16 35 -43 34 l-30 -2 34 129 c88 333 244 658 442 921 77 102 150 188 160 188 4 0 109 -102 234 -227z m3957 -85 l22 -36 -21 -7 c-27 -9 -26 -9 -33 48 -5 52 -2 52 32 -5z m-791 -276 c49 -53 162 -215 162 -231 0 -16 -8 -14 -47 10 -19 12 -36 19 -39 16 -7 -7 21 -60 40 -76 9 -8 16 -22 16 -32 0 -16 -3 -17 -27 -7 -16 7 -41 21 -57 32 -29 19 -29 20 -7 28 21 7 21 9 -13 39 -33 29 -35 34 -30 72 4 23 13 49 20 58 23 26 16 45 -25 64 -47 21 -61 14 -61 -28 0 -48 -11 -60 -44 -47 -15 5 -42 10 -59 10 -67 0 -67 14 2 84 57 58 68 64 95 60 20 -4 46 -22 74 -52z m-2781 -44 c-17 -11 -18 -10 -56 13 -32 19 -33 21 -15 40 17 19 18 19 51 -13 24 -23 29 -34 20 -40z m248 35 c71 -19 113 -49 55 -39 -19 3 -52 9 -72 12 -21 4 -47 18 -60 32 -21 23 -21 25 -3 18 11 -4 47 -14 80 -23z m1105 -281 c15 -34 15 -38 -3 -55 -16 -16 -17 -28 -12 -82 12 -111 18 -128 54 -152 47 -32 81 -31 81 2 0 29 16 33 24 7 4 -11 22 -22 49 -28 39 -8 42 -12 45 -44 4 -44 18 -60 48 -60 23 0 24 -4 23 -48 -2 -49 8 -79 34 -101 12 -9 21 -6 46 15 30 25 33 26 51 9 11 -10 17 -22 14 -26 -7 -12 3 -11 27 1 31 17 23 -6 -20 -53 -22 -24 -40 -55 -43 -74 -4 -31 -3 -32 25 -26 29 6 30 5 24 -24 -3 -17 -1 -35 6 -42 8 -8 8 -11 -2 -11 -8 0 -10 -7 -6 -19 5 -16 -1 -19 -45 -23 -52 -5 -137 -52 -131 -72 2 -5 -14 -18 -34 -29 -48 -24 -39 -32 25 -18 65 14 70 14 70 -3 0 -15 89 -46 132 -46 14 0 34 -11 47 -26 19 -22 29 -26 59 -21 21 3 46 8 57 13 18 7 18 5 -3 -18 -18 -20 -21 -28 -10 -34 9 -6 6 -10 -12 -15 l-25 -6 30 -13 c47 -19 168 -35 173 -22 2 7 12 6 30 -3 15 -8 35 -16 45 -19 9 -3 17 -10 17 -15 0 -6 -11 -6 -27 -1 -16 5 -62 14 -103 21 -41 6 -91 15 -110 20 -50 13 -82 11 -78 -3 10 -29 161 -94 192 -82 9 3 24 3 34 -1 14 -5 11 -9 -17 -21 -18 -8 -50 -14 -71 -14 -35 0 -37 -2 -32 -27 4 -20 2 -25 -10 -21 -9 4 -21 -4 -31 -21 -8 -14 -24 -35 -35 -45 -20 -17 -21 -17 -51 5 -23 17 -34 20 -42 12 -8 -8 -5 -14 12 -23 13 -7 42 -27 65 -45 35 -29 40 -37 36 -68 -3 -27 1 -38 17 -49 21 -15 21 -15 -8 -42 l-28 -27 -48 26 c-58 30 -67 38 -40 34 31 -5 72 9 79 27 8 20 -19 71 -41 78 -10 3 -57 10 -105 15 -48 6 -97 15 -108 21 -12 6 -20 7 -20 1 0 -10 -19 -9 -37 2 -10 6 -11 0 -7 -22 4 -19 0 -43 -9 -64 -9 -19 -17 -62 -17 -98 -4 -228 2 -213 -90 -226 -111 -16 -299 -8 -390 17 -279 75 -489 249 -611 505 -44 93 -79 205 -79 251 0 12 17 35 41 54 35 28 39 34 25 42 -25 14 -19 34 14 48 30 12 52 39 64 76 6 20 2 22 -71 30 -75 9 -78 10 -76 34 6 52 14 69 58 114 68 70 112 62 149 -28 19 -47 19 -46 1 -46 -14 0 -33 -46 -23 -56 3 -2 16 4 29 14 15 12 49 22 90 26 58 5 68 4 84 -14 19 -21 40 -17 31 6 -3 8 -1 14 4 14 12 0 12 11 1 29 -8 12 -13 12 -24 3 -9 -8 -22 -9 -37 -4 -17 6 -20 11 -11 17 11 6 11 9 0 15 -10 7 -9 14 5 35 10 15 15 32 13 39 -3 8 22 26 64 47 46 22 76 45 88 65 12 21 30 34 50 38 17 3 44 9 61 12 42 9 110 85 110 124 0 23 4 30 20 30 27 0 38 29 17 45 -15 11 -13 15 12 39 46 44 44 96 -4 96 -25 0 0 38 41 62 19 11 33 23 30 25 -11 11 -80 -33 -119 -77 -23 -26 -53 -50 -65 -54 -12 -4 -27 -16 -32 -26 -6 -12 -26 -21 -55 -26 -39 -5 -50 -3 -80 20 -19 15 -49 32 -65 38 -17 5 -30 14 -30 19 0 14 200 107 270 124 58 15 154 31 205 34 14 0 24 -10 35 -37z m-1562 -18 c22 -8 45 -26 52 -39 7 -14 24 -32 37 -40 20 -13 23 -24 23 -73 0 -47 -6 -65 -30 -102 -22 -33 -30 -57 -30 -91 0 -32 -11 -67 -35 -117 -33 -66 -38 -72 -73 -77 -51 -8 -102 -32 -102 -47 0 -7 4 -19 9 -27 8 -12 19 -13 80 -1 65 12 73 12 91 -5 10 -9 24 -34 31 -54 28 -87 38 -100 95 -117 29 -8 56 -20 59 -25 4 -5 -94 -9 -249 -9 l-256 0 0 33 c0 20 19 72 47 128 41 82 47 102 48 158 0 72 -19 96 -22 26 -1 -24 -13 -68 -27 -97 l-26 -53 6 50 c3 28 15 88 26 135 15 64 26 90 46 106 21 18 26 31 30 85 3 50 14 86 52 167 31 64 54 102 64 102 9 0 33 -7 54 -16z m4061 -544 c8 0 31 67 31 91 0 8 12 54 27 103 19 62 29 83 34 70 22 -61 69 -410 69 -516 l0 -38 -219 0 -219 0 -12 29 c-10 26 -8 37 20 96 19 39 40 69 50 72 28 7 30 25 12 77 l-17 47 37 35 c26 23 47 34 69 34 24 0 32 5 37 22 3 13 18 47 34 76 15 30 29 66 30 81 1 14 4 -43 5 -126 2 -84 7 -153 12 -153z m-4525 123 c34 -16 37 -16 57 3 l22 19 -7 -30 c-19 -74 -35 -176 -41 -250 -3 -44 -8 -95 -11 -112 l-5 -33 -94 0 -95 0 0 28 c0 15 -9 45 -19 67 l-18 40 25 27 c20 22 26 41 32 105 12 135 63 180 154 136z m-2211 -590 c-27 -112 -18 -261 30 -483 l12 -55 5 110 c5 88 12 126 35 190 20 54 31 73 33 58 3 -22 4 -22 29 7 13 17 29 30 34 30 4 0 15 -24 24 -52 8 -29 29 -73 45 -97 17 -24 35 -61 41 -81 6 -20 20 -47 30 -61 16 -20 20 -22 29 -9 5 8 10 40 10 70 0 85 30 109 45 38 17 -74 103 -217 126 -211 5 2 9 -8 9 -21 0 -14 5 -28 10 -31 6 -4 10 13 10 43 0 32 5 54 15 62 19 16 20 11 34 -99 11 -88 21 -108 57 -121 14 -6 24 -21 29 -46 3 -21 24 -94 45 -163 159 -528 428 -1001 814 -1429 l20 -23 -239 -240 -240 -240 -38 43 c-350 393 -553 694 -759 1123 -244 511 -391 1076 -424 1633 l-7 112 75 0 75 0 -14 -57z m1247 47 c0 -40 -84 -65 -132 -39 -11 6 -39 13 -62 16 -22 2 -48 11 -56 19 -12 12 3 14 118 14 81 0 132 -4 132 -10z m798 -2 c9 -9 12 -9 12 0 0 8 25 12 84 12 94 0 96 -2 96 -72 0 -63 29 -241 55 -343 75 -286 208 -553 386 -772 33 -40 59 -77 59 -82 0 -15 -443 -440 -453 -434 -14 8 -94 137 -101 164 -4 13 -21 58 -37 99 -24 60 -38 81 -69 103 -22 16 -40 33 -40 39 0 5 16 -4 35 -21 20 -17 38 -31 41 -31 8 0 -48 104 -70 129 -20 23 -18 24 24 7 11 -5 20 6 33 43 25 71 22 107 -23 231 -47 130 -48 147 -30 344 10 115 11 162 2 210 -24 124 -26 201 -7 249 14 38 15 51 5 81 -6 20 -19 40 -28 46 -15 8 -15 9 -1 10 8 0 20 -5 27 -12z m978 -29 c25 -40 26 -41 46 -22 11 10 30 18 42 18 14 0 20 5 18 18 -2 9 2 17 8 17 5 0 10 -14 10 -30 0 -37 43 -201 76 -289 26 -70 123 -239 148 -261 9 -7 16 -18 16 -24 0 -6 -122 -133 -270 -281 -268 -267 -271 -270 -288 -249 -123 153 -184 246 -256 392 -109 220 -168 430 -191 680 l-7 73 311 -1 311 -1 26 -40z m3874 4 c-2 -196 -70 -538 -155 -783 -67 -193 -195 -447 -231 -460 -15 -6 -39 -42 -74 -111 -75 -151 -158 -255 -183 -230 -12 12 -45 0 -118 -45 -31 -18 -65 -34 -76 -34 -10 0 -47 29 -82 64 l-64 64 39 11 c50 14 70 14 110 -1 60 -21 95 21 162 197 17 44 34 94 38 110 3 17 12 49 20 73 22 68 14 230 -13 239 -6 2 -29 -14 -51 -36 -22 -23 -47 -41 -54 -41 -10 0 -18 -21 -26 -62 -14 -78 -38 -104 -109 -118 -91 -19 -110 11 -30 46 68 29 96 53 121 102 13 26 36 57 50 69 32 28 61 86 97 191 20 58 40 97 69 129 22 25 40 50 40 54 0 5 6 6 14 3 19 -7 36 26 36 69 0 34 0 35 53 39 57 5 146 51 207 108 29 27 32 35 27 67 -9 51 -37 86 -76 94 -18 4 -38 15 -46 25 -13 18 -75 172 -75 187 0 4 86 7 190 7 l190 0 0 -27z m836 -70 c-43 -642 -228 -1209 -564 -1728 l-45 -70 -13 40 c-7 22 -18 59 -24 83 -6 24 -19 51 -29 61 -9 9 -17 30 -17 47 1 25 -3 29 -29 32 -54 5 -68 -16 -81 -121 -10 -76 -20 -109 -50 -167 l-38 -73 32 -27 c26 -22 32 -34 32 -66 0 -22 5 -45 12 -52 12 -12 -10 -42 -126 -167 l-65 -70 -52 52 -52 51 16 34 c33 70 32 81 -14 121 -32 29 -49 38 -73 36 -59 -5 -116 12 -122 35 -5 22 24 139 75 301 18 55 38 130 45 166 10 51 29 91 84 181 244 400 381 828 417 1311 l7 87 340 0 340 0 -6 -97z m871 -95 c-31 -987 -447 -1986 -1134 -2726 l-96 -104 -268 268 -268 267 81 86 c426 454 740 1048 882 1671 47 204 86 475 86 600 0 30 3 72 6 93 l7 37 355 0 355 0 -6 -192z m-3692 72 c-3 -5 -11 -10 -16 -10 -6 0 -7 5 -4 10 3 6 11 10 16 10 6 0 7 -4 4 -10z m-1395 -615 c33 -35 154 -117 225 -152 123 -62 297 -113 386 -113 l39 0 0 -76 c0 -66 -2 -77 -19 -81 -28 -7 -48 -50 -33 -71 7 -9 16 -27 22 -39 5 -13 14 -23 20 -23 19 0 10 -39 -15 -66 -30 -32 -32 -44 -7 -44 33 0 33 -13 0 -29 l-33 -15 33 -4 c25 -2 32 -8 32 -24 0 -12 -7 -30 -16 -40 -16 -16 -16 -18 0 -24 12 -5 16 -20 16 -70 l0 -64 -42 7 c-24 5 -68 8 -98 8 l-54 0 -14 -47 c-9 -35 -18 -48 -32 -48 -35 0 -246 58 -345 95 -126 47 -270 120 -376 191 -86 58 -211 157 -243 193 l-20 22 269 269 c149 149 272 270 276 270 3 0 16 -11 29 -25z m1167 9 c2 -6 -8 -16 -22 -22 -23 -11 -25 -10 -25 14 0 20 4 25 22 22 12 -2 23 -8 25 -14z m193 -183 c-5 -11 -23 -29 -40 -41 -35 -25 -38 -50 -10 -75 25 -23 25 -35 0 -35 -29 0 -42 -31 -28 -68 14 -37 -2 -82 -30 -82 -10 0 -36 -13 -58 -29 -27 -20 -56 -30 -96 -35 -66 -7 -73 -1 -73 61 -1 49 -9 61 -33 47 -23 -15 -27 -56 -8 -93 22 -42 20 -49 -16 -65 -18 -8 -64 -44 -103 -81 -38 -36 -71 -62 -73 -56 -2 6 2 28 9 48 9 28 9 38 0 41 -8 3 -11 58 -11 188 l0 184 40 0 c38 0 40 -2 51 -42 7 -24 14 -52 16 -63 9 -56 40 -61 83 -13 l29 31 28 -48 c15 -26 38 -60 50 -74 l22 -26 28 35 c24 30 28 43 29 110 1 69 -2 78 -28 108 -15 18 -28 37 -28 42 0 15 73 35 78 21 17 -50 70 -53 113 -6 36 39 78 50 59 16z m710 -247 c0 -8 -5 -24 -11 -36 -11 -20 -11 -20 -35 3 -23 22 -24 24 -8 36 24 18 54 16 54 -3z m-225 -54 c-3 -5 -10 -10 -16 -10 -5 0 -9 5 -9 10 0 6 7 10 16 10 8 0 12 -4 9 -10z m59 -49 l28 -29 -85 -87 c-73 -73 -90 -86 -114 -83 -24 2 -28 8 -31 36 -2 18 2 57 8 88 9 44 17 58 38 67 20 9 26 9 30 -1 6 -20 41 -14 64 13 12 14 24 25 28 25 3 0 19 -13 34 -29z m-2492 -177 c287 -245 670 -418 1042 -469 58 -8 52 -17 -29 -45 -39 -13 -69 -31 -86 -51 -23 -28 -33 -32 -100 -39 -49 -4 -107 -20 -169 -45 -52 -21 -97 -39 -99 -42 -3 -2 -4 -22 -2 -44 2 -35 -4 -47 -39 -85 -22 -24 -40 -54 -40 -66 0 -15 22 -44 60 -82 33 -33 60 -63 60 -67 0 -20 -293 88 -465 171 -211 103 -445 261 -613 416 l-74 67 229 229 c125 125 230 228 232 228 2 0 44 -34 93 -76z m-1747 -66 c148 -133 249 -192 270 -158 3 6 13 10 22 10 26 0 111 -69 159 -129 26 -31 90 -101 143 -157 74 -77 104 -102 131 -107 l34 -7 -128 -129 -128 -129 -60 66 c-127 140 -272 336 -385 522 -63 103 -166 300 -156 300 4 0 49 -37 98 -82z m4410 8 c18 -69 12 -85 -48 -123 -23 -14 -61 -43 -83 -64 -23 -20 -57 -45 -75 -54 -46 -24 -168 -65 -193 -65 -40 0 -90 -35 -102 -71 -18 -54 -46 -62 -222 -63 -85 -1 -158 1 -163 5 -5 3 -4 18 3 36 10 27 20 33 92 54 243 70 511 210 701 367 33 28 63 47 68 43 4 -4 14 -33 22 -65z m198 -134 c31 -32 45 -52 38 -57 -12 -7 -69 0 -131 16 -33 8 -35 11 -35 51 0 36 4 43 25 49 32 8 45 1 103 -59z m-991 37 c9 -5 38 -9 65 -9 94 0 119 -20 58 -46 -26 -10 -41 -12 -55 -4 -10 5 -26 7 -34 4 -9 -3 -41 4 -71 16 -50 20 -65 37 -49 53 7 7 61 -2 86 -14z m-158 -68 c17 -10 50 -22 74 -26 23 -4 40 -10 37 -14 -2 -5 -33 -14 -67 -20 -35 -7 -92 -19 -128 -27 -93 -20 -239 -34 -215 -20 19 11 47 38 73 71 10 11 22 14 40 10 18 -3 42 3 72 18 57 30 75 32 114 8z m-2314 -407 c54 -24 107 -44 118 -44 12 0 52 -23 89 -52 190 -144 498 -313 716 -393 269 -98 542 -157 801 -171 l116 -7 0 -340 0 -340 -132 7 c-637 34 -1301 266 -1817 634 -109 78 -277 214 -366 296 l-70 65 200 201 c228 229 193 214 345 144z m4264 -363 l38 -39 -33 -30 c-28 -25 -40 -29 -69 -25 -19 3 -37 7 -39 10 -6 4 51 123 59 123 3 0 23 -18 44 -39z m-4654 -327 c499 -400 1075 -660 1695 -764 132 -22 398 -50 482 -50 l53 0 0 -358 0 -357 -132 7 c-878 49 -1776 397 -2483 961 -141 112 -344 292 -351 311 -3 7 102 118 233 248 l237 236 80 -75 c45 -41 128 -113 186 -159z m5293 -402 c-74 -67 -261 -223 -328 -273 -585 -440 -1329 -737 -2060 -823 -153 -18 -384 -36 -472 -36 l-63 0 0 359 0 358 118 7 c309 18 641 79 925 169 l108 35 71 -18 c48 -12 77 -25 88 -40 15 -20 24 -22 66 -18 27 2 76 18 109 34 118 59 330 177 385 214 88 60 178 164 242 281 46 84 68 112 114 149 31 25 91 75 133 112 l76 68 268 -268 268 -267 -48 -43z m-2420 433 c-1 -16 -5 -44 -8 -62 -8 -38 3 -45 90 -63 33 -6 80 -21 105 -31 46 -20 130 -94 130 -114 0 -6 -12 -22 -26 -36 -31 -28 -64 -90 -64 -118 0 -29 33 -48 133 -78 62 -18 84 -29 73 -35 -31 -17 -288 -77 -436 -102 -164 -27 -347 -46 -442 -46 l-58 0 0 340 0 340 68 1 c37 0 132 9 212 19 80 9 163 17 185 16 38 -1 40 -3 38 -31z"/>
<path d="M7281 7607 c14 -12 34 -35 43 -50 14 -23 20 -26 32 -16 8 6 28 14 46 18 17 4 33 11 34 16 6 18 -84 55 -133 55 l-48 0 26 -23z"/>
<path d="M7266 7505 c-5 -18 -13 -25 -29 -25 -18 0 -27 -10 -40 -47 -22 -62 -23 -97 -1 -89 9 3 17 6 20 6 2 0 13 19 25 43 12 23 32 56 45 73 29 37 31 64 5 64 -12 0 -21 -9 -25 -25z"/>
<path d="M8580 7570 c0 -20 -4 -22 -35 -16 -22 4 -35 3 -35 -3 0 -30 36 -94 64 -113 51 -36 146 -130 178 -175 16 -24 35 -43 42 -43 7 0 21 20 30 45 l17 44 -46 103 c-26 57 -53 111 -62 120 -8 10 -39 24 -69 33 -29 8 -60 18 -69 21 -11 4 -15 0 -15 -16z"/>
<path d="M8140 7433 c0 -15 23 -33 43 -33 30 0 16 34 -16 38 -15 2 -27 -1 -27 -5z"/>
<path d="M5967 6634 c-10 -10 -9 -74 1 -74 12 0 32 22 32 35 0 18 -25 47 -33 39z"/>
<path d="M5860 6590 c-11 -23 -18 -45 -15 -49 8 -14 75 -19 75 -5 0 6 7 17 15 24 23 19 18 45 -10 58 -38 18 -43 16 -65 -28z"/>
<path d="M5973 6539 c-24 -9 -31 -43 -13 -54 15 -9 42 22 38 44 -2 15 -8 17 -25 10z"/>
<path d="M5922 6455 c-11 -13 -10 -15 7 -15 10 0 21 7 25 15 7 19 -15 19 -32 0z"/>
<path d="M5777 6442 c-50 -3 -57 -5 -47 -18 7 -7 21 -14 31 -14 24 0 24 -22 1 -43 -25 -23 -41 -21 -69 4 -22 21 -23 21 -29 3 -4 -10 -20 -34 -36 -52 -15 -18 -28 -37 -28 -42 0 -15 38 -22 59 -10 17 8 19 8 15 -4 -11 -27 17 -27 50 1 19 15 56 44 83 63 58 42 63 48 63 81 0 31 -12 35 -93 31z"/>
<path d="M5895 6413 c-16 -16 -16 -38 1 -38 5 0 23 -13 39 -29 59 -56 79 -54 77 8 -1 35 -24 56 -52 49 -11 -3 -20 -1 -20 5 0 18 -29 22 -45 5z"/>
<path d="M5895 6305 c-14 -13 -25 -28 -25 -33 0 -5 -16 -17 -35 -28 -20 -10 -43 -29 -51 -41 -9 -15 -29 -25 -57 -29 -32 -5 -52 -17 -84 -50 -39 -40 -74 -116 -60 -130 3 -4 28 2 55 11 l49 18 53 -27 c49 -25 54 -26 71 -10 10 9 21 25 24 35 4 11 12 19 19 19 7 0 26 18 41 41 16 22 40 49 55 59 25 18 50 75 50 115 0 17 -55 75 -72 75 -5 0 -20 -11 -33 -25z"/>
<path d="M6270 5558 c-25 -53 15 -105 50 -63 14 17 4 55 -15 55 -7 0 -15 8 -18 18 -3 14 -6 12 -17 -10z"/>
<path d="M2400 5257 c0 -15 6 -43 14 -62 8 -19 18 -56 21 -82 8 -54 41 -133 57 -133 23 0 -18 163 -62 248 -26 49 -30 53 -30 29z"/>
<path d="M8882 6048 c-17 -17 -15 -53 3 -68 23 -19 47 6 43 44 -3 33 -25 45 -46 24z"/>
<path d="M6184 4952 c-17 -9 -37 -30 -44 -47 -8 -16 -15 -33 -17 -37 -9 -15 40 -29 78 -23 34 6 42 13 59 48 16 33 18 43 8 53 -23 21 -52 23 -84 6z"/>
<path d="M6756 4531 c-5 -7 -3 -18 3 -24 14 -14 20 -6 11 17 -5 15 -9 16 -14 7z"/>
<path d="M9862 10278 c135 -140 205 -222 268 -313 245 -358 537 -680 870 -961 97 -82 255 -204 264 -204 3 0 -6 24 -20 54 -13 29 -39 109 -58 177 -152 555 -409 921 -804 1143 -108 61 -199 100 -475 206 l-227 88 182 -190z"/>
<path d="M2820 10331 c-554 -221 -802 -394 -1008 -706 -119 -179 -157 -271 -241 -577 -34 -123 -66 -218 -109 -318 -3 -8 28 15 69 51 40 36 155 133 254 215 253 209 377 337 509 525 305 432 435 597 608 771 65 65 117 118 115 118 -1 -1 -90 -36 -197 -79z"/>
<path d="M10960 9833 c116 -94 207 -210 274 -348 49 -99 83 -214 176 -585 98 -394 162 -602 235 -764 48 -108 21 -91 -39 25 -76 147 -101 183 -209 302 -113 124 -209 205 -422 352 -261 181 -353 252 -445 345 -85 85 -165 194 -200 273 -26 58 -24 34 5 -93 50 -219 124 -399 225 -555 74 -113 287 -320 509 -495 464 -365 614 -510 745 -725 46 -76 48 -78 42 -40 -24 157 -29 325 -18 563 25 507 12 734 -52 926 -127 377 -446 719 -776 831 -97 33 -103 31 -50 -12z"/>
<path d="M1688 9756 c-211 -80 -415 -249 -581 -481 -84 -118 -159 -313 -193 -500 -23 -132 -29 -431 -13 -653 8 -110 13 -294 11 -447 l-2 -260 21 35 c149 243 342 451 583 630 414 306 694 633 812 950 36 95 74 265 74 331 l0 44 -39 -78 c-97 -194 -206 -297 -641 -612 -193 -140 -282 -217 -372 -325 -100 -120 -158 -207 -216 -328 -84 -173 -64 -88 68 293 49 141 83 277 140 547 47 228 84 361 129 469 69 166 174 307 296 396 41 30 25 28 -77 -11z"/>
<path d="M11909 9018 c124 -189 186 -551 147 -863 -57 -469 -62 -1076 -10 -1446 9 -64 -11 -73 -25 -11 -6 26 -20 99 -32 162 -45 251 -161 468 -355 666 -72 73 -402 373 -461 418 -44 34 -191 205 -244 284 -49 74 -50 75 -44 37 33 -184 126 -459 220 -650 77 -159 157 -279 390 -590 99 -132 216 -295 261 -362 144 -214 240 -426 285 -627 11 -50 22 -92 23 -94 2 -2 11 39 20 90 46 251 122 518 207 724 104 251 150 435 170 674 31 381 -49 797 -217 1132 -80 159 -313 488 -346 488 -5 0 0 -15 11 -32z"/>
<path d="M749 8868 c-323 -437 -458 -824 -459 -1309 0 -290 52 -513 222 -949 116 -297 183 -526 204 -695 l7 -60 18 82 c56 260 174 493 439 873 430 615 476 696 580 1015 39 122 90 335 90 380 0 12 -15 -7 -36 -45 -41 -73 -135 -191 -191 -240 -269 -234 -502 -473 -620 -638 -123 -172 -185 -325 -228 -562 -14 -79 -28 -147 -31 -149 -19 -20 -19 52 3 334 29 369 26 465 -27 890 -47 372 -55 504 -41 656 15 167 50 299 110 422 26 53 45 97 42 97 -4 0 -41 -46 -82 -102z"/>
<path d="M12608 7335 c10 -103 7 -319 -7 -405 -39 -233 -106 -430 -293 -855 -138 -313 -159 -379 -273 -875 -57 -249 -82 -326 -99 -309 -2 2 10 63 27 134 30 126 31 137 31 350 0 193 -2 231 -22 308 -49 195 -133 370 -328 687 -139 225 -218 366 -262 465 -34 79 -81 214 -83 242 -1 10 -6 -27 -10 -82 -6 -72 -4 -140 7 -240 49 -448 157 -912 358 -1530 35 -110 70 -227 77 -260 15 -67 19 -439 7 -590 -6 -72 -5 -87 5 -73 6 9 49 69 94 135 45 65 154 210 243 323 336 430 388 504 450 633 106 221 180 469 222 742 26 171 31 543 10 690 -29 194 -88 413 -146 545 -16 35 -16 34 -8 -35z"/>
<path d="M141 7244 c-28 -75 -106 -397 -122 -509 -17 -116 -17 -453 0 -575 36 -261 108 -566 172 -727 69 -174 196 -361 465 -683 165 -199 267 -334 335 -445 48 -79 87 -119 75 -77 -17 60 -28 250 -24 408 6 204 5 200 162 737 130 446 181 659 221 920 49 328 55 391 54 572 l0 160 -49 -147 c-54 -165 -107 -271 -235 -473 -226 -355 -359 -684 -395 -979 -22 -174 -3 -393 47 -554 12 -37 14 -55 6 -63 -16 -16 -76 184 -123 411 -71 349 -111 468 -288 861 -129 286 -180 411 -215 529 -70 230 -91 426 -66 605 6 42 8 79 6 81 -2 3 -14 -21 -26 -52z"/>
<path d="M11329 5477 c-119 -321 -164 -574 -209 -1192 -55 -743 -117 -1050 -276 -1367 -30 -60 -54 -114 -52 -118 2 -5 39 18 83 51 104 79 314 220 599 404 337 217 481 328 661 510 449 454 684 1008 662 1560 -4 83 -10 164 -15 180 -8 27 -9 24 -15 -30 -15 -144 -100 -357 -208 -526 -108 -169 -255 -336 -574 -654 -139 -139 -246 -271 -407 -504 -110 -158 -247 -351 -277 -391 -11 -14 -23 -22 -26 -18 -4 3 20 55 54 115 113 204 177 402 201 622 21 190 5 367 -70 756 -61 318 -73 415 -74 592 -1 90 -1 163 -1 163 0 0 -25 -69 -56 -153z"/>
<path d="M1408 5416 c5 -158 -11 -284 -74 -586 -75 -358 -92 -523 -74 -725 22 -254 97 -499 203 -666 48 -75 69 -119 58 -119 -17 0 -129 147 -261 344 -163 242 -237 329 -556 656 -143 146 -288 300 -322 341 -204 243 -318 462 -356 681 l-13 73 -8 -80 c-4 -44 -5 -152 -2 -240 10 -264 43 -428 126 -639 116 -293 235 -470 481 -717 215 -216 438 -385 905 -684 194 -125 316 -204 477 -309 l28 -18 -25 56 c-14 31 -40 87 -59 124 -144 286 -183 471 -251 1204 -51 553 -71 705 -116 916 -36 170 -97 368 -146 478 l-18 41 3 -131z"/>
<path d="M10934 4302 c-82 -98 -349 -475 -418 -589 -96 -160 -176 -356 -314 -768 -141 -423 -203 -574 -308 -753 -80 -136 -153 -232 -258 -341 -50 -52 -82 -91 -71 -87 77 28 302 82 526 125 373 73 582 119 669 147 495 165 1002 559 1317 1024 63 92 161 278 204 385 33 83 89 291 89 329 0 13 -17 -10 -43 -59 -141 -268 -367 -490 -697 -687 -58 -34 -262 -142 -454 -240 -498 -254 -686 -371 -881 -549 -38 -36 -87 -77 -108 -92 -35 -26 -107 -62 -107 -53 0 2 37 39 81 82 175 170 330 379 418 564 94 200 129 340 197 793 61 406 104 596 170 746 13 30 23 55 22 57 -2 1 -17 -14 -34 -34z"/>
<path d="M1846 4205 c68 -160 112 -344 174 -740 89 -559 141 -719 321 -991 56 -85 109 -146 236 -271 90 -90 160 -163 155 -163 -13 0 -163 91 -222 134 -30 22 -86 66 -125 99 -175 146 -323 233 -815 476 -472 233 -634 333 -822 509 -123 116 -260 303 -307 420 -23 55 -23 29 -2 -60 87 -367 317 -742 649 -1060 126 -120 247 -215 427 -333 155 -102 205 -129 332 -181 183 -73 334 -109 771 -184 302 -51 483 -89 587 -121 32 -10 60 -17 62 -15 2 1 -26 28 -62 60 -134 118 -279 316 -374 508 -69 141 -135 311 -235 604 -143 420 -186 521 -319 744 -101 170 -303 448 -427 590 l-30 35 26 -60z"/>
<path d="M9978 2912 c-233 -174 -392 -316 -849 -765 -335 -328 -414 -391 -604 -486 -133 -66 -364 -147 -522 -183 -57 -13 -103 -26 -103 -29 0 -3 31 -9 70 -13 104 -9 249 -39 622 -126 588 -139 713 -159 1000 -167 226 -6 337 3 503 42 525 123 1059 516 1290 949 l38 71 -96 -92 c-193 -186 -405 -296 -717 -373 -162 -39 -361 -65 -765 -100 -412 -36 -530 -50 -765 -95 -96 -19 -200 -36 -230 -40 -30 -3 -72 -8 -93 -11 -74 -9 -26 14 135 66 367 117 581 287 757 600 28 49 99 192 157 317 111 239 168 347 240 451 24 34 42 62 40 62 -1 0 -50 -35 -108 -78z"/>
<path d="M2726 2919 c5 -8 31 -48 58 -89 27 -41 117 -205 199 -365 82 -159 165 -317 185 -350 210 -348 424 -506 819 -606 45 -12 90 -27 100 -36 16 -13 10 -14 -57 -9 -41 2 -145 19 -230 36 -264 53 -395 68 -820 95 -512 33 -725 65 -970 145 -214 70 -391 173 -538 314 -94 90 -94 79 1 -64 191 -288 471 -528 802 -690 290 -142 545 -200 873 -200 299 0 541 41 1146 195 235 59 417 100 496 110 68 9 126 17 128 19 4 5 -2 7 -162 46 -308 76 -588 204 -776 357 -30 25 -192 176 -360 336 -332 316 -498 465 -660 591 -134 105 -245 183 -234 165z"/>
<path d="M5575 1438 c-354 -28 -676 -128 -1315 -408 -140 -62 -293 -125 -340 -140 -358 -117 -795 -115 -1144 7 -100 35 -238 99 -288 135 -60 42 -23 -5 86 -109 264 -254 653 -446 1007 -498 339 -49 746 24 1084 193 121 60 351 206 570 361 207 147 290 198 395 241 105 43 184 60 292 61 90 2 214 -16 223 -31 3 -4 -19 -17 -48 -29 -64 -27 -297 -153 -409 -223 -315 -195 -601 -415 -848 -655 l-123 -119 119 -99 c65 -54 126 -104 135 -112 14 -12 22 -5 65 49 151 193 356 402 574 584 293 244 639 468 783 506 48 12 50 12 132 -30 329 -169 684 -449 1108 -875 l228 -228 77 65 c42 35 100 88 127 116 l50 52 -85 80 c-339 321 -785 633 -1208 846 l-134 67 49 12 c26 6 115 12 197 12 244 2 288 -16 661 -274 287 -199 350 -238 495 -310 331 -166 604 -235 927 -235 220 0 349 23 562 99 289 104 588 305 763 514 l42 49 -55 -35 c-270 -172 -660 -260 -1017 -229 -145 13 -271 37 -387 72 -94 30 -600 232 -683 274 -317 159 -743 256 -1125 256 -241 0 -517 -39 -606 -86 -56 -30 -104 -30 -191 0 -88 31 -275 64 -433 76 -138 11 -159 11 -312 -2z"/>
</g>
</svg>